<?xml version="1.0" encoding="UTF-8" standalone="no"?>
<!DOCTYPE svg PUBLIC "-//W3C//DTD SVG 1.1//EN" "http://www.w3.org/Graphics/SVG/1.1/DTD/svg11.dtd">
<!-- Created with Vectornator (http://vectornator.io/) -->
<svg height="100%" stroke-miterlimit="10" style="fill-rule:nonzero;clip-rule:evenodd;stroke-linecap:round;stroke-linejoin:round;" version="1.1" viewBox="0 0 1024 1024" width="100%" xml:space="preserve" xmlns="http://www.w3.org/2000/svg" xmlns:vectornator="http://vectornator.io" xmlns:xlink="http://www.w3.org/1999/xlink">
<defs/>
<path d="M0 0L1024 0L1024 1024L0 1024L0 0Z" fill="#ffffff" fill-rule="nonzero" opacity="1" stroke="none"/>
<g id="Background" vectornator:layerName="Background">
<path d="M0 0L1024 0L1024 1024L0 1024L0 0Z" fill="#11055c" fill-rule="nonzero" opacity="1" stroke="none" vectornator:layerName="Rectangle 1"/>
</g>
<g id="Text" vectornator:layerName="Text">
<g fill="#dddddd" opacity="1" stroke="none" vectornator:layerName="Headline">
<path d="M171.67 627.665L219.033 627.665L219.033 802.469L393.838 627.665L460.977 627.665L311.807 772.196L465.127 986.307L401.895 986.307L276.406 806.376L219.033 861.307L219.033 986.307L171.67 986.307L171.67 627.665Z"/>
<path d="M522.5 728.251L573.525 728.251L573.525 781.473L522.5 781.473L522.5 728.251ZM522.5 933.085L573.525 933.085L573.525 986.307L522.5 986.307L522.5 933.085Z"/>
<path d="M642.861 627.665L712.441 627.665L815.469 930.887L917.764 627.665L986.611 627.665L986.611 986.307L940.469 986.307L940.469 774.637C940.469 767.313 940.632 755.188 940.957 738.26C941.283 721.333 941.445 703.186 941.445 683.817L839.15 986.307L791.055 986.307L688.027 683.817L688.027 694.803C688.027 703.593 688.231 716.98 688.638 734.965C689.045 752.95 689.248 766.174 689.248 774.637L689.248 986.307L642.861 986.307L642.861 627.665Z"/>
</g>
<g fill="#ffffff" opacity="1" stroke="none" vectornator:layerName="Title">
<path d="M25.9997 54.2714L38.1247 54.2714L38.1247 99.0214L82.8747 54.2714L100.062 54.2714L61.8747 91.2714L101.125 146.084L84.9372 146.084L52.8122 100.021L38.1247 114.084L38.1247 146.084L25.9997 146.084L25.9997 54.2714Z"/>
<path d="M118.5 128.271C118.5 131.521 119.687 134.084 122.062 135.959C124.437 137.834 127.25 138.771 130.5 138.771C134.458 138.771 138.291 137.855 142 136.021C148.25 132.98 151.375 128.001 151.375 121.084L151.375 112.021C150 112.896 148.229 113.626 146.062 114.209C143.895 114.792 141.77 115.209 139.687 115.459L132.875 116.334C128.791 116.876 125.729 117.73 123.687 118.896C120.229 120.855 118.5 123.98 118.5 128.271ZM145.75 105.521C148.333 105.188 150.062 104.105 150.937 102.271C151.437 101.271 151.687 99.8339 151.687 97.9589C151.687 94.1256 150.323 91.3443 147.593 89.6152C144.864 87.886 140.958 87.0214 135.875 87.0214C130 87.0214 125.833 88.6047 123.375 91.7714C122 93.5214 121.104 96.1256 120.687 99.5839L110.187 99.5839C110.395 91.3339 113.073 85.5943 118.218 82.3652C123.364 79.136 129.333 77.5214 136.125 77.5214C144 77.5214 150.395 79.0214 155.312 82.0214C160.187 85.0214 162.625 89.6881 162.625 96.0214L162.625 134.584C162.625 135.751 162.864 136.688 163.343 137.396C163.823 138.105 164.833 138.459 166.375 138.459C166.875 138.459 167.437 138.428 168.062 138.365C168.687 138.303 169.354 138.209 170.062 138.084L170.062 146.396C168.312 146.896 166.979 147.209 166.062 147.334C165.145 147.459 163.895 147.521 162.312 147.521C158.437 147.521 155.625 146.146 153.875 143.396C152.958 141.938 152.312 139.876 151.937 137.209C149.645 140.209 146.354 142.813 142.062 145.021C137.77 147.23 133.041 148.334 127.875 148.334C121.666 148.334 116.593 146.448 112.656 142.678C108.718 138.907 106.75 134.188 106.75 128.521C106.75 122.313 108.687 117.501 112.562 114.084C116.437 110.667 121.52 108.563 127.812 107.771L145.75 105.521Z"/>
<path d="M187.75 125.084C188.083 128.834 189.02 131.709 190.562 133.709C193.395 137.334 198.312 139.146 205.312 139.146C209.479 139.146 213.145 138.24 216.312 136.428C219.479 134.615 221.062 131.813 221.062 128.021C221.062 125.146 219.791 122.959 217.25 121.459C215.625 120.542 212.416 119.48 207.625 118.271L198.687 116.021C192.979 114.605 188.77 113.021 186.062 111.271C181.229 108.23 178.812 104.021 178.812 98.6464C178.812 92.3131 181.093 87.1881 185.656 83.2714C190.218 79.3547 196.354 77.3964 204.062 77.3964C214.145 77.3964 221.416 80.3547 225.875 86.2714C228.666 90.0214 230.02 94.0631 229.937 98.3964L219.312 98.3964C219.104 95.8547 218.208 93.5422 216.625 91.4589C214.041 88.5006 209.562 87.0214 203.187 87.0214C198.937 87.0214 195.718 87.8339 193.531 89.4589C191.343 91.0839 190.25 93.2297 190.25 95.8964C190.25 98.8131 191.687 101.146 194.562 102.896C196.229 103.938 198.687 104.855 201.937 105.646L209.375 107.459C217.458 109.417 222.875 111.313 225.625 113.146C230 116.021 232.187 120.542 232.187 126.709C232.187 132.667 229.927 137.813 225.406 142.146C220.885 146.48 214 148.646 204.75 148.646C194.791 148.646 187.739 146.386 183.593 141.865C179.448 137.344 177.229 131.751 176.937 125.084L187.75 125.084Z"/>
<path d="M271.625 138.834C279.083 138.834 284.198 136.011 286.968 130.365C289.739 124.719 291.125 118.438 291.125 111.521C291.125 105.271 290.125 100.188 288.125 96.2714C284.958 90.1047 279.5 87.0214 271.75 87.0214C264.875 87.0214 259.875 89.6464 256.75 94.8964C253.625 100.146 252.062 106.48 252.062 113.896C252.062 121.021 253.625 126.959 256.75 131.709C259.875 136.459 264.833 138.834 271.625 138.834ZM272.062 77.2089C280.687 77.2089 287.979 80.0839 293.937 85.8339C299.895 91.5839 302.875 100.042 302.875 111.209C302.875 122.001 300.25 130.917 295 137.959C289.75 145.001 281.604 148.521 270.562 148.521C261.354 148.521 254.041 145.407 248.625 139.178C243.208 132.948 240.5 124.584 240.5 114.084C240.5 102.834 243.354 93.8756 249.062 87.2089C254.77 80.5422 262.437 77.2089 272.062 77.2089Z"/>
<path d="M353 54.2714L370.812 54.2714L397.187 131.896L423.375 54.2714L441 54.2714L441 146.084L429.187 146.084L429.187 91.8964C429.187 90.0214 429.229 86.9172 429.312 82.5839C429.395 78.2506 429.437 73.6047 429.437 68.6464L403.25 146.084L390.937 146.084L364.562 68.6464L364.562 71.4589C364.562 73.7089 364.614 77.136 364.718 81.7402C364.823 86.3443 364.875 89.7297 364.875 91.8964L364.875 146.084L353 146.084L353 54.2714Z"/>
<path d="M467.062 128.271C467.062 131.521 468.25 134.084 470.625 135.959C473 137.834 475.812 138.771 479.062 138.771C483.02 138.771 486.854 137.855 490.562 136.021C496.812 132.98 499.937 128.001 499.937 121.084L499.937 112.021C498.562 112.896 496.791 113.626 494.625 114.209C492.458 114.792 490.333 115.209 488.25 115.459L481.437 116.334C477.354 116.876 474.291 117.73 472.25 118.896C468.791 120.855 467.062 123.98 467.062 128.271ZM494.312 105.521C496.895 105.188 498.625 104.105 499.5 102.271C500 101.271 500.25 99.8339 500.25 97.9589C500.25 94.1256 498.885 91.3443 496.156 89.6152C493.427 87.886 489.52 87.0214 484.437 87.0214C478.562 87.0214 474.395 88.6047 471.937 91.7714C470.562 93.5214 469.666 96.1256 469.25 99.5839L458.75 99.5839C458.958 91.3339 461.635 85.5943 466.781 82.3652C471.927 79.136 477.895 77.5214 484.687 77.5214C492.562 77.5214 498.958 79.0214 503.875 82.0214C508.75 85.0214 511.187 89.6881 511.187 96.0214L511.187 134.584C511.187 135.751 511.427 136.688 511.906 137.396C512.385 138.105 513.395 138.459 514.937 138.459C515.437 138.459 516 138.428 516.625 138.365C517.25 138.303 517.916 138.209 518.625 138.084L518.625 146.396C516.875 146.896 515.541 147.209 514.625 147.334C513.708 147.459 512.458 147.521 510.875 147.521C507 147.521 504.187 146.146 502.437 143.396C501.52 141.938 500.875 139.876 500.5 137.209C498.208 140.209 494.916 142.813 490.625 145.021C486.333 147.23 481.604 148.334 476.437 148.334C470.229 148.334 465.156 146.448 461.218 142.678C457.281 138.907 455.312 134.188 455.312 128.521C455.312 122.313 457.25 117.501 461.125 114.084C465 110.667 470.083 108.563 476.375 107.771L494.312 105.521Z"/>
<path d="M536.312 125.084C536.645 128.834 537.583 131.709 539.125 133.709C541.958 137.334 546.875 139.146 553.875 139.146C558.041 139.146 561.708 138.24 564.875 136.428C568.041 134.615 569.625 131.813 569.625 128.021C569.625 125.146 568.354 122.959 565.812 121.459C564.187 120.542 560.979 119.48 556.187 118.271L547.25 116.021C541.541 114.605 537.333 113.021 534.625 111.271C529.791 108.23 527.375 104.021 527.375 98.6464C527.375 92.3131 529.656 87.1881 534.218 83.2714C538.781 79.3547 544.916 77.3964 552.625 77.3964C562.708 77.3964 569.979 80.3547 574.437 86.2714C577.229 90.0214 578.583 94.0631 578.5 98.3964L567.875 98.3964C567.666 95.8547 566.77 93.5422 565.187 91.4589C562.604 88.5006 558.125 87.0214 551.75 87.0214C547.5 87.0214 544.281 87.8339 542.093 89.4589C539.906 91.0839 538.812 93.2297 538.812 95.8964C538.812 98.8131 540.25 101.146 543.125 102.896C544.791 103.938 547.25 104.855 550.5 105.646L557.937 107.459C566.02 109.417 571.437 111.313 574.187 113.146C578.562 116.021 580.75 120.542 580.75 126.709C580.75 132.667 578.489 137.813 573.968 142.146C569.448 146.48 562.562 148.646 553.312 148.646C543.354 148.646 536.302 146.386 532.156 141.865C528.01 137.344 525.791 131.751 525.5 125.084L536.312 125.084Z"/>
<path d="M593.625 53.9589L604.875 53.9589L604.875 88.2089C607.541 84.8339 609.937 82.4589 612.062 81.0839C615.687 78.7089 620.208 77.5214 625.625 77.5214C635.333 77.5214 641.916 80.9172 645.375 87.7089C647.25 91.4172 648.187 96.5631 648.187 103.146L648.187 146.084L636.625 146.084L636.625 103.896C636.625 98.9797 636 95.3756 634.75 93.0839C632.708 89.4172 628.875 87.5839 623.25 87.5839C618.583 87.5839 614.354 89.1881 610.562 92.3964C606.77 95.6047 604.875 101.667 604.875 110.584L604.875 146.084L593.625 146.084L593.625 53.9589Z"/>
<path d="M664.812 79.4589L676.25 79.4589L676.25 146.084L664.812 146.084L664.812 79.4589ZM664.812 54.2714L676.25 54.2714L676.25 67.0214L664.812 67.0214L664.812 54.2714Z"/>
<path d="M693.25 79.1464L703.937 79.1464L703.937 88.6464C707.104 84.7297 710.458 81.9172 714 80.2089C717.541 78.5006 721.479 77.6464 725.812 77.6464C735.312 77.6464 741.729 80.9589 745.062 87.5839C746.895 91.2089 747.812 96.3964 747.812 103.146L747.812 146.084L736.375 146.084L736.375 103.896C736.375 99.8131 735.77 96.5214 734.562 94.0214C732.562 89.8547 728.937 87.7714 723.687 87.7714C721.02 87.7714 718.833 88.0422 717.125 88.5839C714.041 89.5006 711.333 91.3339 709 94.0839C707.125 96.2922 705.906 98.5735 705.343 100.928C704.781 103.282 704.5 106.646 704.5 111.021L704.5 146.084L693.25 146.084L693.25 79.1464Z"/>
</g>
</g>
</svg>
